<svg width="171" height="48" viewBox="0 0 171 48" fill="none" xmlns="http://www.w3.org/2000/svg">
<g clip-path="url(#clip0)">
<path d="M99.9967 30.4C99.9967 31.6749 99.7452 32.9498 99.2466 34.229C98.7479 35.5039 98.0191 36.6243 97.0687 37.5859C96.1056 38.5817 94.9463 39.3802 93.5868 39.9768C92.2272 40.5778 90.6546 40.8783 88.8646 40.8783C86.7848 40.8783 85.1013 40.2988 83.8057 39.1441C82.5101 37.9851 81.8623 36.4311 81.8623 34.4737C81.8623 33.0357 82.1393 31.6964 82.6891 30.4515C83.2389 29.2067 83.9762 28.1164 84.9053 27.1763C85.8429 26.2362 87.0021 25.4764 88.3873 24.8969C89.7681 24.3174 91.2683 24.0298 92.8836 24.0298C95.1125 24.0298 96.8514 24.6179 98.1129 25.7898C99.3659 26.9616 99.9967 28.4984 99.9967 30.4ZM96.1695 29.7862C96.1695 28.2494 95.8541 27.099 95.2233 26.3306C94.5926 25.5622 93.6805 25.1802 92.4915 25.1802C91.4516 25.1802 90.4713 25.4549 89.555 26.0087C88.6345 26.5581 87.8417 27.4596 87.1811 28.7001C86.6655 29.6402 86.2904 30.6876 86.056 31.838C85.8173 32.9885 85.698 34.053 85.698 35.0275C85.698 36.5728 86.0091 37.7447 86.6271 38.5388C87.2451 39.333 88.1827 39.7322 89.4314 39.7322C90.5438 39.7322 91.5325 39.4274 92.3977 38.8221C93.2629 38.2169 93.9618 37.4485 94.4988 36.517C95.0358 35.607 95.4492 34.5682 95.739 33.392C96.0246 32.2201 96.1695 31.0182 96.1695 29.7862Z" fill="white"/>
<path d="M119.746 38.5131L119.465 39.5519C118.335 39.9425 117.457 40.2258 116.827 40.4018C116.2 40.5821 115.565 40.668 114.926 40.668C113.92 40.668 113.166 40.4447 112.667 39.994C112.164 39.5476 111.913 38.9895 111.913 38.3328C111.913 38.0967 111.938 37.8305 111.989 37.5472C112.041 37.2639 112.122 36.9205 112.237 36.5342L114.091 30.4816C114.231 30.018 114.338 29.593 114.423 29.2153C114.504 28.8375 114.547 28.5327 114.547 28.3052C114.547 27.5798 114.346 27.0089 113.95 26.5882C113.554 26.1675 112.961 25.9572 112.181 25.9572C111.423 25.9572 110.575 26.1718 109.628 26.6054C108.687 27.0389 107.796 27.6656 106.965 28.4898L103.755 40.3975H100.248L103.061 29.8849C103.125 29.6274 103.214 29.2496 103.334 28.756C103.453 28.2623 103.513 27.8674 103.513 27.5626C103.513 26.9573 103.393 26.5538 103.155 26.3478C102.916 26.1418 102.439 26.0387 101.723 26.0387C101.446 26.0387 101.092 26.0774 100.666 26.1589C100.239 26.2405 99.9027 26.3092 99.6641 26.3607L99.9453 25.3219C100.926 24.9441 101.795 24.6608 102.549 24.4805C103.304 24.3002 103.952 24.2058 104.493 24.2058C105.486 24.2058 106.198 24.4376 106.624 24.9055C107.05 25.3691 107.28 26.013 107.301 26.8372H107.412C108.785 25.8842 109.969 25.1802 110.967 24.7209C111.964 24.2616 113.098 24.0298 114.372 24.0298C115.569 24.0298 116.503 24.3303 117.176 24.9312C117.85 25.5322 118.186 26.3177 118.186 27.2922C118.186 27.4853 118.152 27.833 118.084 28.331C118.016 28.8289 117.905 29.3183 117.756 29.8076L116.179 35.0146C116.068 35.3623 115.957 35.7572 115.851 36.2079C115.744 36.6587 115.693 37.0064 115.693 37.2553C115.693 37.8735 115.851 38.2899 116.162 38.5131C116.473 38.7363 116.989 38.8436 117.7 38.8436C117.939 38.8436 118.28 38.8093 118.723 38.7363C119.167 38.6633 119.507 38.5903 119.746 38.5131Z" fill="white"/>
<path d="M129.059 15.552L123.808 35.0619C123.693 35.474 123.591 35.8818 123.488 36.2939C123.386 36.706 123.339 37.0408 123.339 37.2984C123.339 37.9122 123.497 38.3372 123.817 38.5604C124.136 38.7836 124.652 38.8995 125.364 38.8995C125.615 38.8995 125.986 38.8738 126.48 38.818C126.975 38.7622 127.345 38.6978 127.597 38.6248L127.316 39.6636C126.19 40.0542 125.321 40.329 124.716 40.4921C124.111 40.6552 123.424 40.7368 122.662 40.7368C121.66 40.7368 120.901 40.5136 120.381 40.0628C119.862 39.6164 119.602 39.0584 119.602 38.4016C119.602 38.1526 119.631 37.8951 119.687 37.6246C119.742 37.3542 119.819 37.0151 119.921 36.603L124.494 19.527C124.584 19.1921 124.639 18.9603 124.673 18.8273C124.703 18.6985 124.72 18.5354 124.72 18.3422C124.72 17.9516 124.643 17.6554 124.494 17.4408C124.345 17.2304 124.128 17.0716 123.855 16.9643C123.591 16.8656 123.258 16.8012 122.853 16.7711C122.453 16.7368 122.044 16.7024 121.626 16.6595L121.89 15.6722L128.871 15.3159L129.059 15.552Z" fill="white"/>
<path d="M136.005 38.629L135.724 39.6678C134.573 40.067 133.653 40.3461 132.967 40.5006C132.281 40.6594 131.692 40.7367 131.202 40.7367C130.201 40.7367 129.451 40.5135 128.948 40.0627C128.449 39.612 128.198 39.0583 128.198 38.4015C128.198 38.1525 128.223 37.895 128.274 37.6245C128.326 37.3541 128.407 37.015 128.517 36.6029L130.499 29.709C130.597 29.3312 130.695 28.9234 130.789 28.4942C130.883 28.0606 130.93 27.6957 130.93 27.391C130.93 26.7857 130.814 26.3822 130.584 26.1804C130.354 25.9787 129.881 25.88 129.169 25.88C128.892 25.88 128.53 25.9186 128.074 25.9916C127.618 26.0645 127.273 26.1332 127.034 26.1847L127.315 25.1459C128.291 24.7682 129.165 24.4892 129.941 24.3046C130.716 24.12 131.33 24.0298 131.778 24.0298C132.805 24.0298 133.546 24.2402 134.011 24.6609C134.475 25.0815 134.706 25.6482 134.706 26.365C134.706 26.5582 134.68 26.8243 134.629 27.1592C134.578 27.494 134.505 27.8288 134.403 28.1636L132.408 35.0576C132.285 35.4782 132.174 35.8946 132.08 36.2981C131.986 36.7016 131.94 37.0365 131.94 37.294C131.94 37.9121 132.097 38.3328 132.417 38.5603C132.737 38.7878 133.248 38.8995 133.96 38.8995C134.194 38.8995 134.535 38.8737 134.978 38.8179C135.43 38.7664 135.771 38.702 136.005 38.629ZM137.339 17.9C137.339 18.5138 137.109 19.0547 136.645 19.514C136.18 19.9733 135.605 20.2008 134.919 20.2008C134.279 20.2008 133.73 19.9819 133.265 19.5441C132.801 19.1062 132.57 18.6083 132.57 18.0459C132.57 17.4536 132.801 16.9342 133.265 16.492C133.73 16.0499 134.279 15.8267 134.919 15.8267C135.63 15.8267 136.214 16.037 136.666 16.4491C137.114 16.8655 137.339 17.3505 137.339 17.9Z" fill="white"/>
<path d="M155.589 38.5131L155.308 39.5519C154.178 39.9425 153.3 40.2258 152.669 40.4018C152.043 40.5821 151.408 40.668 150.769 40.668C149.763 40.668 149.009 40.4447 148.51 39.994C148.007 39.5476 147.756 38.9895 147.756 38.3328C147.756 38.0967 147.781 37.8305 147.832 37.5472C147.883 37.2639 147.964 36.9205 148.079 36.5342L149.933 30.4816C150.074 30.018 150.181 29.593 150.266 29.2153C150.347 28.8375 150.389 28.5327 150.389 28.3052C150.389 27.5798 150.189 27.0089 149.793 26.5882C149.396 26.1675 148.804 25.9572 148.024 25.9572C147.265 25.9572 146.417 26.1718 145.471 26.6054C144.529 27.0389 143.639 27.6656 142.807 28.4898L139.598 40.3975H136.091L138.904 29.8849C138.967 29.6274 139.057 29.2496 139.176 28.756C139.296 28.2623 139.355 27.8674 139.355 27.5626C139.355 26.9573 139.236 26.5538 138.997 26.3478C138.759 26.1418 138.281 26.0387 137.565 26.0387C137.288 26.0387 136.935 26.0774 136.508 26.1589C136.082 26.2405 135.746 26.3092 135.507 26.3607L135.788 25.3219C136.768 24.9441 137.638 24.6608 138.392 24.4805C139.146 24.3002 139.794 24.2058 140.336 24.2058C141.329 24.2058 142.04 24.4376 142.467 24.9055C142.893 25.3691 143.123 26.013 143.144 26.8372H143.255C144.627 25.8842 145.812 25.1802 146.809 24.7209C147.807 24.2616 148.94 24.0298 150.215 24.0298C151.412 24.0298 152.346 24.3303 153.019 24.9312C153.692 25.5322 154.029 26.3177 154.029 27.2922C154.029 27.4853 153.995 27.833 153.927 28.331C153.859 28.8289 153.748 29.3183 153.599 29.8076L152.022 35.0146C151.911 35.3623 151.8 35.7572 151.694 36.2079C151.587 36.6587 151.536 37.0064 151.536 37.2553C151.536 37.8735 151.694 38.2899 152.005 38.5131C152.316 38.7363 152.831 38.8436 153.543 38.8436C153.782 38.8436 154.123 38.8093 154.566 38.7363C155.009 38.6633 155.35 38.5903 155.589 38.5131Z" fill="white"/>
<path d="M171 27.4038C171 28.5499 170.582 29.5372 169.751 30.3571C168.92 31.1813 167.71 31.8338 166.12 32.3189C164.956 32.688 163.78 32.9842 162.591 33.2117C161.402 33.4392 160.089 33.6281 158.649 33.7784C158.649 35.4868 159.015 36.7918 159.748 37.6932C160.481 38.5947 161.551 39.0454 162.966 39.0454C164.219 39.0454 165.323 38.775 166.278 38.2341C167.232 37.6932 168.178 36.8905 169.103 35.8173L170.173 36.4999C169.171 37.8177 167.918 38.8694 166.418 39.6592C164.918 40.4491 163.358 40.844 161.743 40.844C159.527 40.844 157.835 40.3074 156.667 39.2386C155.495 38.1697 154.911 36.6501 154.911 34.6798C154.911 33.319 155.158 32.0184 155.653 30.7778C156.147 29.5415 156.872 28.4083 157.822 27.3781C158.747 26.3736 159.885 25.5623 161.227 24.9442C162.574 24.326 164.057 24.0212 165.685 24.0212C167.488 24.0212 168.822 24.3389 169.691 24.9699C170.561 25.6009 171 26.4165 171 27.4038ZM167.548 27.0046C167.548 26.5839 167.479 26.2534 167.343 26.0087C167.207 25.7683 167.032 25.5838 166.819 25.4679C166.593 25.3391 166.354 25.2575 166.107 25.2275C165.856 25.1931 165.6 25.1802 165.336 25.1802C163.836 25.1802 162.446 25.8928 161.176 27.3137C159.906 28.7345 159.101 30.5117 158.764 32.6322C159.638 32.5249 160.631 32.3704 161.73 32.1729C162.83 31.9755 163.746 31.7136 164.471 31.3874C165.51 30.9238 166.282 30.3271 166.789 29.6016C167.296 28.8762 167.548 28.0091 167.548 27.0046Z" fill="white"/>
<path d="M135.929 47.8669H134.812V46.6606H135.929V47.8669Z" fill="white"/>
<path d="M141.64 47.5707C141.346 47.6995 141.069 47.7982 140.804 47.8669C140.54 47.9356 140.263 47.9742 139.965 47.9742C139.59 47.9742 139.24 47.9227 138.929 47.824C138.614 47.7253 138.345 47.5707 138.119 47.369C137.893 47.1672 137.714 46.9097 137.591 46.6006C137.467 46.2915 137.403 45.9267 137.403 45.5146C137.403 44.7419 137.638 44.1324 138.107 43.6945C138.575 43.2567 139.193 43.0334 139.965 43.0334C140.263 43.0334 140.557 43.0721 140.847 43.1493C141.137 43.2266 141.397 43.3168 141.64 43.4284V44.3126H141.593C141.324 44.1238 141.047 43.9778 140.762 43.8748C140.476 43.7718 140.199 43.7246 139.926 43.7246C139.428 43.7246 139.036 43.8748 138.746 44.1796C138.456 44.4844 138.315 44.9265 138.315 45.5146C138.315 46.0855 138.456 46.5233 138.737 46.8281C139.019 47.1329 139.415 47.2874 139.926 47.2874C140.105 47.2874 140.284 47.266 140.468 47.223C140.651 47.1801 140.817 47.1243 140.962 47.0599C141.09 46.9998 141.209 46.9397 141.32 46.871C141.431 46.8067 141.52 46.7466 141.589 46.6993H141.635V47.5707H141.64Z" fill="white"/>
<path d="M147.023 45.506C147.023 46.2744 146.806 46.8839 146.371 47.3303C145.936 47.7768 145.352 48 144.619 48C143.882 48 143.294 47.7768 142.859 47.3303C142.424 46.8839 142.207 46.2744 142.207 45.506C142.207 44.7333 142.424 44.1281 142.859 43.6773C143.294 43.2309 143.878 43.0077 144.619 43.0077C145.352 43.0077 145.936 43.2309 146.371 43.6773C146.806 44.1281 147.023 44.7333 147.023 45.506ZM146.115 45.506C146.115 44.8921 145.983 44.4371 145.719 44.1409C145.455 43.8447 145.088 43.6945 144.615 43.6945C144.138 43.6945 143.767 43.8447 143.507 44.1409C143.243 44.4371 143.111 44.8921 143.111 45.506C143.111 46.0984 143.243 46.5491 143.507 46.8539C143.771 47.1586 144.142 47.3132 144.615 47.3132C145.084 47.3132 145.45 47.1629 145.715 46.8582C145.983 46.5534 146.115 46.1027 146.115 45.506Z" fill="white"/>
<path d="M155.803 47.8669H154.925V45.1755C154.925 44.9737 154.916 44.7762 154.895 44.5874C154.874 44.3985 154.831 44.2483 154.767 44.1324C154.695 44.0122 154.592 43.9177 154.46 43.8576C154.328 43.7975 154.132 43.7632 153.881 43.7632C153.633 43.7632 153.391 43.819 153.143 43.9306C152.896 44.0422 152.653 44.1839 152.406 44.3556C152.415 44.42 152.423 44.4972 152.427 44.5831C152.432 44.6689 152.436 44.7548 152.436 44.8406V47.8669H151.558V45.1755C151.558 44.9651 151.549 44.7677 151.528 44.5788C151.507 44.3899 151.464 44.2397 151.4 44.1281C151.328 44.0079 151.226 43.9177 151.093 43.8533C150.961 43.7932 150.765 43.7632 150.514 43.7632C150.275 43.7632 150.032 43.819 149.794 43.922C149.551 44.0293 149.312 44.1667 149.073 44.3341V47.8669H148.195V43.1408H149.073V43.6645C149.346 43.4584 149.619 43.2996 149.892 43.1837C150.164 43.0678 150.454 43.012 150.761 43.012C151.115 43.012 151.417 43.0807 151.664 43.2137C151.912 43.3468 152.095 43.5357 152.219 43.7761C152.572 43.5056 152.896 43.3082 153.19 43.188C153.484 43.0678 153.795 43.0077 154.128 43.0077C154.699 43.0077 155.121 43.1665 155.394 43.4799C155.666 43.7932 155.803 44.2354 155.803 44.7977V47.8669Z" fill="white"/>
<path d="M158.735 47.8669H157.618V46.6606H158.735V47.8669Z" fill="white"/>
<path d="M164.957 45.5875H161.113C161.113 45.8794 161.16 46.1327 161.258 46.3473C161.356 46.562 161.488 46.7422 161.654 46.8796C161.816 47.017 162.008 47.1157 162.23 47.1844C162.451 47.2531 162.699 47.2874 162.967 47.2874C163.321 47.2874 163.679 47.223 164.037 47.0942C164.395 46.9655 164.65 46.841 164.804 46.7165H164.851V47.5836C164.557 47.6952 164.254 47.7896 163.943 47.8669C163.636 47.9442 163.312 47.9828 162.971 47.9828C162.106 47.9828 161.428 47.7682 160.943 47.3475C160.457 46.9225 160.214 46.3173 160.214 45.536C160.214 44.7633 160.448 44.1495 160.913 43.6945C161.377 43.2395 161.991 43.012 162.75 43.012C163.453 43.012 163.994 43.1965 164.378 43.57C164.761 43.9435 164.949 44.4714 164.949 45.1583V45.5875H164.957ZM164.101 44.978C164.096 44.5616 163.981 44.2354 163.751 44.0078C163.521 43.7803 163.176 43.6644 162.707 43.6644C162.238 43.6644 161.863 43.7889 161.582 44.0422C161.305 44.2955 161.147 44.6045 161.109 44.978H164.101Z" fill="white"/>
<path d="M169.956 47.5707C169.662 47.6995 169.385 47.7982 169.121 47.8669C168.856 47.9356 168.579 47.9742 168.281 47.9742C167.906 47.9742 167.557 47.9227 167.245 47.824C166.93 47.7253 166.662 47.5707 166.436 47.369C166.21 47.1672 166.031 46.9097 165.907 46.6006C165.784 46.2915 165.72 45.9267 165.72 45.5146C165.72 44.7419 165.954 44.1324 166.423 43.6945C166.892 43.2567 167.51 43.0334 168.281 43.0334C168.579 43.0334 168.874 43.0721 169.163 43.1493C169.453 43.2266 169.713 43.3168 169.956 43.4284V44.3126H169.909C169.641 44.1238 169.364 43.9778 169.078 43.8748C168.793 43.7718 168.516 43.7246 168.243 43.7246C167.744 43.7246 167.352 43.8748 167.062 44.1796C166.772 44.4844 166.632 44.9265 166.632 45.5146C166.632 46.0855 166.772 46.5233 167.054 46.8281C167.335 47.1329 167.731 47.2874 168.243 47.2874C168.422 47.2874 168.601 47.266 168.784 47.223C168.967 47.1801 169.134 47.1243 169.278 47.0599C169.406 46.9998 169.526 46.9397 169.636 46.871C169.747 46.8067 169.837 46.7466 169.905 46.6993H169.952V47.5707H169.956Z" fill="white"/>
<path d="M53.8364 9.90735H45.7004V1.22339H41.1104L41.4002 4.63602V21.5489H45.7004V13.3329H53.8364V21.5489H58.1494V1.22339H53.8364V9.90735Z" fill="white"/>
<path d="M110.78 17.9002C109.88 18.1879 109.028 18.3767 108.227 18.4755C107.848 18.5141 107.438 18.5356 107.008 18.5356C105.964 18.5356 105.154 18.3123 104.587 17.8702C104.02 17.4281 103.743 16.6253 103.752 15.462L113.345 14.8997C113.367 14.7838 113.392 14.4962 113.435 14.0412C113.473 13.5862 113.495 13.0968 113.495 12.5645C113.495 12.131 113.486 11.8004 113.465 11.5729C113.367 9.67131 112.719 8.27621 111.53 7.38334C110.336 6.49048 108.738 6.04405 106.735 6.04405C104.966 6.04405 103.552 6.32307 102.49 6.88111C101.429 7.43915 100.666 8.27621 100.193 9.39229C99.7243 10.5084 99.4899 11.9464 99.4899 13.6978C99.4899 15.2903 99.6562 16.6296 99.9801 17.7285C99.7755 17.8702 99.4942 18.0204 99.1362 18.175C98.6759 18.3724 98.2412 18.4712 97.8321 18.4712C97.4485 18.4712 97.163 18.3338 96.9669 18.0591C96.7709 17.7843 96.6387 17.3808 96.5705 16.8571C96.5024 16.3291 96.4683 15.6295 96.4683 14.7495V14.6336L96.4555 9.53824H99.2129L99.6093 6.40463H96.4725V2.01758L92.3087 2.22362V6.40463H90.6977V9.53824H92.3087L92.3214 16.0244V16.4236C92.3214 16.9859 92.3641 17.5139 92.445 18.0076C92.3427 18.0805 92.2277 18.1492 92.0998 18.2179C91.7802 18.3896 91.4392 18.4755 91.0684 18.4755C90.6849 18.4755 90.3993 18.3638 90.2118 18.1449C90.02 17.9217 89.8922 17.574 89.824 17.1018C89.7558 16.6296 89.7174 15.96 89.7089 15.0929V12.2426C89.7089 10.2036 89.3211 8.65825 88.5497 7.61085C87.7783 6.56346 86.4997 6.03546 84.7225 6.03546C83.998 6.03546 83.3118 6.18571 82.6555 6.4776C81.9991 6.77379 81.4493 7.09574 80.9976 7.44344C80.5501 7.79544 80.3242 8.00148 80.3242 8.07016V6.22434L76.1902 6.62355V18.1192C76.1475 18.1363 76.1092 18.1578 76.0666 18.175C75.6063 18.3724 75.1758 18.4712 74.7752 18.4712C74.3831 18.4712 74.089 18.3381 73.8887 18.0719C73.6884 17.8058 73.552 17.4195 73.4839 16.9129C73.4157 16.4064 73.3816 15.711 73.3816 14.8224L73.3475 6.4819H69.2092L69.222 15.286C69.222 16.1016 69.2305 16.7155 69.2518 17.119C68.8981 17.4238 68.6296 17.647 68.4463 17.7929C68.2588 17.9346 67.9817 18.0891 67.6152 18.2522C67.2487 18.4154 66.8524 18.4969 66.4219 18.4969C65.8082 18.4969 65.3223 18.3553 64.9686 18.0762C64.6149 17.7972 64.3677 17.3765 64.2185 16.8142C64.0736 16.2519 63.9969 15.5178 63.9969 14.6121V6.62784L59.833 6.21575V15.7282C59.833 17.7672 60.2208 19.3125 60.9922 20.3599C61.7636 21.4073 63.0422 21.931 64.8194 21.931C65.7272 21.931 66.5455 21.7765 67.27 21.4717C67.9945 21.1669 68.5699 20.8364 69.0003 20.4801C69.4308 20.1238 69.7121 19.8534 69.8527 19.6688C70.1553 20.2483 70.5559 20.7162 71.0546 21.0639C71.5532 21.4116 72.1286 21.6434 72.7849 21.7507C73.0406 21.8108 73.3176 21.8409 73.6202 21.8409C73.8248 21.8409 74.0464 21.828 74.2808 21.7979C74.9499 21.6863 75.5765 21.4631 76.1646 21.1326V21.549H80.2986V10.8217C80.2986 10.7917 80.435 10.6586 80.7078 10.4225C80.9805 10.1864 81.3257 9.97179 81.7434 9.77004C82.1611 9.57258 82.6128 9.47385 83.0987 9.47385C83.998 9.47385 84.6287 9.78721 84.991 10.4182C85.3532 11.0492 85.5322 12.028 85.5322 13.3587V16.415C85.5322 18.0419 85.8263 19.364 86.4187 20.3814C87.0111 21.3987 88.1022 21.9095 89.6961 21.9095C90.3993 21.9095 91.0471 21.7507 91.631 21.4374C92.2192 21.124 92.705 20.7763 93.0928 20.3943C93.1397 20.3513 93.1738 20.3127 93.2122 20.2741C93.2292 20.2998 93.242 20.3299 93.2591 20.3556C93.8941 21.3901 95.0107 21.9053 96.6046 21.9053C97.4059 21.9053 98.2071 21.6992 98.9998 21.2828C99.7755 20.8793 100.428 20.3599 100.96 19.7332C101.365 20.2569 101.86 20.6862 102.448 21.0167C103.5 21.6091 104.907 21.901 106.663 21.901C107.622 21.901 108.576 21.7722 109.531 21.5146C110.486 21.2571 111.325 20.9566 112.054 20.6046C112.783 20.2569 113.298 19.9435 113.601 19.6645L112.97 17.1104C112.412 17.3594 111.679 17.6126 110.78 17.9002ZM104.579 10.0576C105.069 9.56399 105.768 9.31931 106.676 9.31931C108.512 9.31931 109.433 10.1092 109.433 11.6845C109.433 11.8605 109.429 11.9936 109.42 12.0838L103.743 12.307C103.812 11.2982 104.089 10.547 104.579 10.0576Z" fill="white"/>
<path d="M124.809 6.21567C124.413 6.09548 123.983 6.03967 123.509 6.03967C122.504 6.03967 121.613 6.26289 120.846 6.70503C120.079 7.14717 119.469 7.71379 119.022 8.4049V6.21996L114.888 6.61918V21.5489H119.022V12.3627C119.022 11.8218 119.205 11.3067 119.572 10.8174C119.938 10.328 120.411 9.93737 120.986 9.64547C121.562 9.34928 122.15 9.20333 122.747 9.20333C123.207 9.20333 123.599 9.24625 123.919 9.32781C124.243 9.41367 124.609 9.53386 125.018 9.68839L125.576 6.51186C125.466 6.4303 125.206 6.33157 124.809 6.21567Z" fill="white"/>
<path d="M36.3327 15.0154C35.4973 11.6414 33.7713 8.44342 31.1545 5.80347C23.4745 -1.93612 11.017 -1.93612 3.33706 5.80347C1.98604 7.16422 0.87795 8.67093 0 10.2807C3.57573 6.78218 8.45134 4.623 13.8298 4.623C19.4087 4.623 24.5443 7.03974 28.1498 10.77C27.7833 11.6586 27.5489 12.1394 27.144 12.9593C29.4753 14.3544 30.9286 15.582 31.4485 16.1014C31.5039 16.2946 31.5508 16.4835 31.602 16.6767C32.0239 18.3851 32.2157 20.1408 32.1816 21.8965C32.1773 22.0596 32.173 22.227 32.1603 22.3901V22.403C32.139 22.9396 32.0921 23.4719 32.0196 24.0084C32.0196 24.0084 31.2567 21.772 31.0266 21.5531C28.3757 19.7201 25.1665 18.6427 21.7101 18.6427C12.6067 18.6427 5.22935 26.0775 5.22935 35.2422C5.22935 35.5599 5.24213 35.8732 5.25918 36.1866C8.29365 39.625 15.6966 47.8324 17.2479 47.8324C19.2084 47.8324 30.447 34.7958 30.447 34.7958C31.4784 33.7613 33.0766 31.6622 33.8309 30.4774C34.8538 28.8677 35.6209 27.142 36.1366 25.3563C36.6182 23.6822 36.8782 21.9609 36.9123 20.2352C36.9464 18.4796 36.7546 16.7239 36.3327 15.0154Z" fill="white"/>
<path d="M25.1663 12.7447L19.0889 10.4138L20.2609 13.8436L25.1663 12.7447Z" fill="white"/>
</g>
<defs>
<clipPath id="clip0">
<rect width="171" height="48" fill="white"/>
</clipPath>
</defs>
</svg>
