<svg width="67" height="67" viewBox="0 0 67 67" fill="none" xmlns="http://www.w3.org/2000/svg">
<path d="M33.5 0.583374C15.33 0.583374 0.583374 15.33 0.583374 33.5C0.583374 51.67 15.33 66.4167 33.5 66.4167C51.67 66.4167 66.4167 51.67 66.4167 33.5C66.4167 15.33 51.67 0.583374 33.5 0.583374ZM33.5 10.4584C38.9642 10.4584 43.375 14.8692 43.375 20.3334C43.375 25.7975 38.9642 30.2084 33.5 30.2084C28.0359 30.2084 23.625 25.7975 23.625 20.3334C23.625 14.8692 28.0359 10.4584 33.5 10.4584ZM33.5 57.2001C25.2709 57.2001 17.9963 52.9867 13.75 46.6009C13.8488 40.0505 26.9167 36.4625 33.5 36.4625C40.0505 36.4625 53.1513 40.0505 53.25 46.6009C49.0038 52.9867 41.7292 57.2001 33.5 57.2001Z" fill="white"/>
</svg>
